<svg width="32" height="22" viewBox="0 0 32 22" fill="none" xmlns="http://www.w3.org/2000/svg">
<path d="M0 7.5H32V14.5H0V7.5Z" fill="#E6E7E8"/>
<path d="M27 0H5C1.6865 0 0 2.4625 0 5.5V7.5H32V5.5C32 2.4625 30.3135 0 27 0Z" fill="#FF9933"/>
<path d="M0 16.5C0 19.5375 1.6865 22 5 22H27C30.3135 22 32 19.5375 32 16.5V14.5H0V16.5Z" fill="#128807"/>
<path fill-rule="evenodd" clip-rule="evenodd" d="M16.1548 7.7915C16.7936 7.7915 17.4181 7.98101 17.9492 8.33604C18.4804 8.69107 18.8942 9.19566 19.1385 9.78598C19.3827 10.3763 19.4464 11.0258 19.3214 11.6523C19.1964 12.2788 18.8883 12.8541 18.4363 13.3055C17.9842 13.7569 17.4084 14.064 16.7817 14.1881C16.155 14.3121 15.5056 14.2474 14.9156 14.0023C14.3257 13.7571 13.8217 13.3425 13.4675 12.8108C13.1133 12.2791 12.9248 11.6544 12.9258 11.0155C12.9272 10.16 13.2681 9.34008 13.8734 8.73563C14.4788 8.13119 15.2993 7.79164 16.1548 7.7915ZM14.0023 9.189C14.0578 9.252 14.0678 9.3195 14.0308 9.376C14.0151 9.40202 13.9909 9.42181 13.9623 9.432C13.9403 9.44017 13.9167 9.44289 13.8934 9.43993C13.8702 9.43697 13.848 9.42842 13.8288 9.415C13.7419 9.53945 13.6654 9.67091 13.6003 9.808C13.6758 9.8575 13.7008 9.9195 13.6758 9.988C13.6624 10.0229 13.636 10.0511 13.6021 10.0668C13.5682 10.0825 13.5295 10.0844 13.4943 10.072C13.4583 10.144 13.3788 10.448 13.3778 10.512C13.4109 10.5183 13.4407 10.5362 13.4618 10.5625C13.4841 10.5886 13.4956 10.6222 13.4938 10.6565C13.4843 10.7505 13.4263 10.7905 13.3378 10.794C13.3238 10.8845 13.3253 11.1875 13.3393 11.247C13.4333 11.257 13.4828 11.298 13.4908 11.3695C13.5018 11.4465 13.4648 11.4965 13.3748 11.5315C13.4018 11.68 13.4403 11.826 13.4908 11.969C13.526 11.9584 13.5638 11.9596 13.5983 11.9725C13.6318 11.987 13.6583 12.012 13.6723 12.0465C13.6848 12.0735 13.6873 12.1015 13.6808 12.131C13.6761 12.1529 13.6664 12.1735 13.6524 12.191C13.6385 12.2085 13.6206 12.2226 13.6003 12.232C13.6673 12.371 13.7413 12.502 13.8288 12.625C13.9068 12.5865 13.9748 12.5955 14.0208 12.6505C14.041 12.6731 14.0526 12.7022 14.0533 12.7325C14.0548 12.7549 14.0509 12.7774 14.0419 12.7979C14.0328 12.8185 14.0189 12.8365 14.0013 12.8505C14.1013 12.9675 14.2078 13.0745 14.3238 13.173C14.3893 13.1155 14.4573 13.1065 14.5158 13.1475C14.5423 13.166 14.5608 13.1905 14.5693 13.2205C14.5754 13.2417 14.5767 13.2641 14.573 13.2859C14.5694 13.3077 14.5609 13.3284 14.5483 13.3465C14.6748 13.4335 14.8053 13.5085 14.9418 13.5735C14.9948 13.499 15.0553 13.474 15.1208 13.499C15.1493 13.5093 15.1741 13.5279 15.1918 13.5525C15.2168 13.5925 15.2203 13.6365 15.2058 13.6835C15.3498 13.7345 15.4948 13.7735 15.6448 13.8C15.6743 13.7155 15.7253 13.676 15.7933 13.681C15.8248 13.6835 15.8533 13.693 15.8783 13.7145C15.9133 13.7465 15.9298 13.787 15.9268 13.837C16.0808 13.848 16.2313 13.849 16.3808 13.837C16.3918 13.7405 16.4303 13.692 16.5078 13.681C16.5372 13.6769 16.5672 13.6829 16.5928 13.698C16.6115 13.7086 16.6276 13.7233 16.6399 13.7409C16.6522 13.7586 16.6604 13.7788 16.6638 13.8C16.8148 13.772 16.9613 13.7335 17.1028 13.683C17.0903 13.5885 17.1133 13.532 17.1768 13.5025C17.1999 13.4926 17.2252 13.4886 17.2503 13.491C17.2763 13.493 17.2998 13.501 17.3188 13.518C17.3373 13.5335 17.3528 13.5525 17.3708 13.572C17.5071 13.5077 17.6379 13.4323 17.7618 13.3465C17.7108 13.2665 17.7408 13.19 17.7823 13.156C17.7968 13.1436 17.8136 13.1342 17.8317 13.1284C17.8498 13.1225 17.869 13.1203 17.888 13.122C17.9069 13.1236 17.9254 13.129 17.9423 13.1378C17.9592 13.1467 17.9741 13.1588 17.9863 13.1735C18.1018 13.0745 18.2103 12.967 18.3073 12.8515C18.2508 12.787 18.2398 12.719 18.2813 12.6605C18.2981 12.6343 18.3239 12.6151 18.3538 12.6065C18.3751 12.5997 18.3977 12.598 18.4198 12.6014C18.4419 12.6047 18.463 12.6132 18.4813 12.626C18.5688 12.5 18.6448 12.3695 18.7098 12.2325C18.6368 12.1835 18.6103 12.126 18.6323 12.0605C18.6403 12.0314 18.6579 12.0058 18.6823 11.988C18.7017 11.9745 18.724 11.9656 18.7474 11.9621C18.7709 11.9586 18.7948 11.9607 18.8173 11.968C18.8498 11.8975 18.9308 11.6005 18.9353 11.5285C18.9007 11.5222 18.8695 11.5038 18.8473 11.4765C18.8356 11.463 18.8269 11.4472 18.8217 11.4302C18.8164 11.4132 18.8148 11.3952 18.8168 11.3775C18.8187 11.3458 18.8318 11.3159 18.8538 11.293C18.8688 11.2771 18.8872 11.2649 18.9077 11.2571C18.9281 11.2493 18.95 11.2462 18.9718 11.248C18.9843 11.0968 18.9843 10.9447 18.9718 10.7935C18.8763 10.784 18.8308 10.747 18.8183 10.6715C18.8127 10.643 18.8169 10.6133 18.8303 10.5875C18.8406 10.5675 18.8554 10.5502 18.8735 10.5369C18.8917 10.5237 18.9126 10.5148 18.9348 10.511C18.9085 10.3616 18.8695 10.2148 18.8183 10.072C18.7258 10.0875 18.6688 10.0625 18.6383 9.9985C18.6304 9.98139 18.6259 9.96288 18.6253 9.94403C18.6246 9.92519 18.6277 9.9064 18.6343 9.88877C18.641 9.87113 18.6511 9.85499 18.664 9.84129C18.677 9.8276 18.6925 9.81662 18.7098 9.809C18.645 9.67155 18.5686 9.5399 18.4813 9.4155C18.4008 9.454 18.3353 9.445 18.2893 9.39C18.2689 9.36677 18.2575 9.33694 18.2573 9.306C18.2563 9.28403 18.2606 9.26214 18.2696 9.24209C18.2786 9.22203 18.2922 9.20437 18.3093 9.1905C18.2105 9.07493 18.1031 8.96711 17.9878 8.868C17.9188 8.927 17.8518 8.9345 17.7948 8.8935C17.7689 8.87624 17.75 8.85038 17.7413 8.8205C17.7351 8.79952 17.7337 8.7774 17.7374 8.75582C17.741 8.73424 17.7495 8.71378 17.7623 8.696C17.6376 8.60912 17.506 8.53269 17.3688 8.4675C17.3173 8.5415 17.2593 8.566 17.1938 8.544C17.1648 8.53472 17.1394 8.51653 17.1213 8.492C17.1081 8.47249 17.0997 8.45015 17.0967 8.42678C17.0938 8.40342 17.0964 8.37968 17.1043 8.3575C16.9616 8.30592 16.8147 8.26694 16.6653 8.241C16.6368 8.322 16.5853 8.364 16.5188 8.36C16.4877 8.359 16.4578 8.34775 16.4338 8.328C16.416 8.31297 16.402 8.29383 16.3932 8.27223C16.3844 8.25063 16.381 8.22722 16.3833 8.204C16.2322 8.19117 16.0803 8.19133 15.9293 8.2045C15.9188 8.2945 15.8798 8.346 15.8133 8.357C15.7834 8.36339 15.7522 8.35951 15.7248 8.346C15.7043 8.33589 15.6866 8.32104 15.673 8.30269C15.6595 8.28434 15.6505 8.26302 15.6468 8.2405C15.4973 8.26769 15.3504 8.30698 15.2073 8.358C15.2233 8.4465 15.1983 8.5045 15.1373 8.536C15.1108 8.5495 15.0828 8.555 15.0518 8.5495C15.0285 8.54633 15.0064 8.53714 14.9877 8.52285C14.9691 8.50856 14.9544 8.48966 14.9453 8.468C14.8598 8.5 14.5878 8.6575 14.5518 8.697C14.5888 8.771 14.5803 8.8365 14.5293 8.8835C14.5149 8.89623 14.4981 8.90594 14.4798 8.91204C14.4616 8.91814 14.4423 8.92051 14.4231 8.91902C14.404 8.91753 14.3853 8.9122 14.3682 8.90335C14.3512 8.8945 14.3361 8.88231 14.3238 8.8675C14.2084 8.96613 14.1009 9.07363 14.0023 9.189Z" fill="#010088"/>
<path fill-rule="evenodd" clip-rule="evenodd" d="M17.5398 13.4136C17.5338 13.4071 17.5278 13.4026 17.5233 13.3956C17.2326 12.9512 16.9411 12.5074 16.6488 12.0641C16.6423 12.0516 16.6348 12.0391 16.6288 12.0251C16.5608 11.8666 16.4943 11.7081 16.4248 11.5501C16.4224 11.5419 16.4193 11.534 16.4153 11.5266C16.3873 11.5371 16.3618 11.5491 16.3318 11.5606L16.3418 11.5861C16.4043 11.7396 16.4643 11.8936 16.5278 12.0471C16.5448 12.0881 16.5518 12.1311 16.5608 12.1741C16.6098 12.4036 16.6558 12.6341 16.7053 12.8641L16.8743 13.6856C16.8751 13.6875 16.8754 13.6897 16.8752 13.6918C16.8749 13.6939 16.8741 13.6959 16.8728 13.6976L16.8658 13.6801C16.7288 13.2606 16.5883 12.8416 16.4508 12.4221C16.4233 12.3401 16.3988 12.2591 16.3688 12.1771C16.3548 12.1361 16.3503 12.0941 16.3438 12.0516C16.3263 11.9326 16.3113 11.8126 16.2918 11.6936C16.2893 11.6651 16.2848 11.6371 16.2808 11.6096C16.2796 11.5981 16.2777 11.5868 16.2753 11.5756C16.2453 11.5786 16.2178 11.5826 16.1878 11.5861C16.1878 11.5981 16.1888 11.6106 16.1898 11.6231C16.2073 11.7696 16.2223 11.9166 16.2433 12.0626C16.2543 12.1426 16.2488 12.2211 16.2443 12.3011C16.2413 12.3686 16.2368 12.4361 16.2338 12.5041C16.2248 12.6411 16.2178 12.7776 16.2083 12.9141L16.1933 13.1961C16.1848 13.3561 16.1748 13.5156 16.1663 13.6746C16.1623 13.7196 16.1613 13.7656 16.1568 13.8096L16.1448 13.6581L16.1293 13.3301L16.1113 13.0376C16.1063 12.9376 16.0998 12.8381 16.0943 12.7381C16.0898 12.6726 16.0873 12.6071 16.0833 12.5426C16.0778 12.4391 16.0713 12.3356 16.0663 12.2331C16.0614 12.1784 16.0627 12.1234 16.0703 12.0691C16.0808 11.9951 16.0888 11.9196 16.0978 11.8446C16.1078 11.7706 16.1163 11.6961 16.1253 11.6231C16.1263 11.6116 16.1263 11.5996 16.1278 11.5861L16.0403 11.5746C16.0378 11.5946 16.0333 11.6141 16.0298 11.6341C16.009 11.7868 15.9877 11.9395 15.9658 12.0921C15.9598 12.1516 15.9363 12.2066 15.9163 12.2621C15.7623 12.7311 15.6078 13.2006 15.4518 13.6691C15.4483 13.6776 15.4468 13.6856 15.4403 13.6936C15.4403 13.6876 15.4403 13.6831 15.4428 13.6776C15.5073 13.3616 15.5723 13.0451 15.6393 12.7291C15.6823 12.5191 15.7268 12.3096 15.7693 12.1001L15.7813 12.0656C15.8458 11.9071 15.9078 11.7471 15.9738 11.5886C15.9761 11.5792 15.9794 11.5702 15.9838 11.5616C15.9562 11.5498 15.9286 11.5383 15.9008 11.5271C15.8973 11.5361 15.8918 11.5436 15.8888 11.5526C15.8198 11.7116 15.7523 11.8711 15.6833 12.0301C15.679 12.042 15.6736 12.0536 15.6673 12.0646C15.3723 12.5115 15.0781 12.959 14.7848 13.4071C14.7808 13.4138 14.7755 13.4197 14.7693 13.4246C14.7718 13.4166 14.7763 13.4101 14.7793 13.4031L15.5023 11.9696C15.5085 11.9565 15.5162 11.9443 15.5253 11.9331L15.8343 11.5186C15.8408 11.5116 15.8448 11.5051 15.8508 11.4976C15.8253 11.4791 15.8048 11.4621 15.7793 11.4426C15.7738 11.4491 15.7688 11.4546 15.7643 11.4611C15.6563 11.5966 15.5498 11.7331 15.4443 11.8681C15.4323 11.8806 15.4213 11.8936 15.4078 11.9051C15.0138 12.2576 14.6198 12.6081 14.2243 12.9611C14.2163 12.9676 14.2083 12.9746 14.1983 12.9791C14.2028 12.9746 14.2053 12.9691 14.2083 12.9656C14.5328 12.6031 14.8548 12.2411 15.1778 11.8786C15.1963 11.8586 15.2148 11.8386 15.2323 11.8171C15.2693 11.7741 15.3108 11.7361 15.3558 11.7021L15.7148 11.4196C15.7228 11.4136 15.7288 11.4071 15.7378 11.4011C15.72 11.3771 15.7017 11.3536 15.6828 11.3306C15.6748 11.3356 15.6683 11.3406 15.6608 11.3461C15.5233 11.4491 15.3853 11.5511 15.2478 11.6546C15.2324 11.6662 15.216 11.6764 15.1988 11.6851C14.7293 11.9221 14.2573 12.1591 13.7868 12.3961C13.7778 12.4001 13.7693 12.4051 13.7588 12.4051L13.7778 12.3916L14.6558 11.8166C14.8088 11.7161 14.9623 11.6156 15.1143 11.5146C15.1273 11.5071 15.1408 11.5006 15.1523 11.4946C15.3118 11.4271 15.4708 11.3591 15.6288 11.2911C15.6363 11.2881 15.6438 11.2851 15.6528 11.2806L15.6193 11.1981C15.6098 11.2006 15.6038 11.2031 15.5963 11.2056C15.4343 11.2701 15.2738 11.3356 15.1108 11.3996C15.0773 11.4121 15.0408 11.4181 15.0053 11.4256L13.9128 11.6526C13.7753 11.6821 13.6353 11.7111 13.4973 11.7396C13.4917 11.7409 13.4859 11.7402 13.4808 11.7376C13.5188 11.7256 13.5568 11.7121 13.5943 11.6996C14.0663 11.5441 14.5378 11.3891 15.0083 11.2326C15.0453 11.2201 15.0848 11.2166 15.1223 11.2106C15.2743 11.1896 15.4258 11.1676 15.5763 11.1461C15.5855 11.1444 15.5947 11.1424 15.6038 11.1401C15.6008 11.1111 15.5963 11.0821 15.5938 11.0521L15.5208 11.0601L15.2188 11.0966C15.1623 11.1041 15.1063 11.1101 15.0508 11.1171C15.0373 11.1186 15.0243 11.1191 15.0113 11.1186L14.6933 11.1001L14.5053 11.0896L14.1813 11.0706L13.7088 11.0446C13.5948 11.0386 13.4838 11.0311 13.3703 11.0231C13.3883 11.0216 13.4083 11.0186 13.4278 11.0186L13.8153 10.9966L14.3273 10.9676L14.7513 10.9436L15.0173 10.9276C15.0278 10.9271 15.0403 10.9286 15.0508 10.9296L15.3558 10.9661L15.5718 10.9921H15.5938C15.5963 10.9636 15.6008 10.9366 15.6038 10.9056C15.5853 10.9016 15.5643 10.8986 15.5458 10.8951C15.4123 10.8766 15.2798 10.8571 15.1463 10.8376C15.1186 10.8344 15.0909 10.8307 15.0633 10.8266C15.048 10.8245 15.0329 10.821 15.0183 10.8161C14.6208 10.6856 14.2258 10.5541 13.8288 10.4236C13.7183 10.3873 13.608 10.3507 13.4978 10.3136C13.4883 10.311 13.4793 10.3068 13.4713 10.3011L13.5408 10.3151L14.3893 10.4916C14.6163 10.5391 14.8468 10.5861 15.0738 10.6341C15.0875 10.6371 15.1008 10.6413 15.1138 10.6466C15.2738 10.7096 15.4323 10.7746 15.5938 10.8386L15.6178 10.8481C15.6288 10.8206 15.6408 10.7941 15.6528 10.7656C15.6446 10.7607 15.6361 10.7565 15.6273 10.7531C15.4683 10.6861 15.3098 10.6176 15.1513 10.5491C15.1388 10.5438 15.1268 10.5376 15.1153 10.5306C14.6668 10.2371 14.2203 9.94206 13.7713 9.64806C13.7654 9.64478 13.7606 9.6397 13.7578 9.63356L13.7758 9.64356C14.2228 9.86856 14.6703 10.0936 15.1183 10.3181C15.1923 10.3551 15.2643 10.3996 15.3303 10.4501C15.4393 10.5346 15.5503 10.6156 15.6613 10.6986C15.6688 10.7041 15.6753 10.7091 15.6833 10.7141L15.7383 10.6446L15.7188 10.6276L15.3123 10.3081C15.2983 10.2971 15.2873 10.2856 15.2753 10.2736C14.9213 9.87706 14.5668 9.48006 14.2138 9.08356C14.2087 9.07947 14.2047 9.07413 14.2023 9.06806C14.2128 9.06906 14.2168 9.07606 14.2213 9.08056C14.4358 9.27056 14.6483 9.46056 14.8613 9.65056L15.4123 10.1416C15.4223 10.1506 15.4318 10.1616 15.4408 10.1716L15.7563 10.5726C15.7643 10.5816 15.7703 10.5911 15.7793 10.6031L15.8518 10.5476C15.8473 10.5406 15.8413 10.5351 15.8378 10.5286C15.7348 10.3911 15.6323 10.2531 15.5283 10.1161C15.5176 10.0999 15.5077 10.0832 15.4988 10.0661C15.2588 9.59356 15.0208 9.11906 14.7823 8.64606C14.7778 8.63706 14.7733 8.63006 14.7723 8.62056C14.7768 8.62556 14.7813 8.63006 14.7843 8.63456L15.2953 9.41556L15.6568 9.96556C15.6693 9.98656 15.6833 10.0086 15.6913 10.0316C15.7588 10.1856 15.8238 10.3401 15.8893 10.4941C15.8938 10.5011 15.8968 10.5086 15.9013 10.5176L15.9843 10.4831L15.9753 10.4621C15.9128 10.3061 15.8518 10.1501 15.7883 9.99506C15.7708 9.95556 15.7643 9.91456 15.7558 9.87356C15.7013 9.61306 15.6488 9.35206 15.5943 9.09106C15.5408 8.84006 15.4898 8.59106 15.4373 8.33906C15.4363 8.33756 15.4373 8.33556 15.4393 8.33056L15.4833 8.46406C15.6403 8.93556 15.7958 9.40806 15.9498 9.88056C15.9628 9.91756 15.9673 9.95806 15.9728 9.99656C15.9913 10.1276 16.0098 10.2596 16.0308 10.3916C16.0343 10.4166 16.0358 10.4416 16.0408 10.4691L16.1278 10.4581V10.4251C16.1153 10.3206 16.1018 10.2156 16.0898 10.1116C16.0823 10.0506 16.0768 9.99106 16.0683 9.93156C16.0633 9.89155 16.0633 9.85107 16.0683 9.81106C16.0718 9.74306 16.0768 9.67556 16.0798 9.60806L16.1043 9.20056C16.1088 9.12756 16.1103 9.05356 16.1148 8.98056C16.1213 8.88556 16.1263 8.78906 16.1318 8.69356C16.1363 8.62356 16.1398 8.55306 16.1428 8.48356C16.1468 8.40106 16.1533 8.31906 16.1603 8.23706C16.1623 8.25956 16.1633 8.28256 16.1643 8.30656C16.1713 8.40706 16.1763 8.50756 16.1823 8.60856L16.2083 9.06656L16.2238 9.32356C16.2318 9.47206 16.2388 9.62106 16.2473 9.76956C16.2498 9.79206 16.2508 9.81306 16.2523 9.83506C16.2588 9.89306 16.2473 9.95056 16.2423 10.0081L16.2103 10.2701C16.2053 10.3196 16.1978 10.3691 16.1918 10.4191C16.1908 10.4311 16.1908 10.4441 16.1873 10.4586C16.2183 10.4631 16.2463 10.4661 16.2773 10.4701C16.2818 10.4486 16.2838 10.4286 16.2873 10.4076C16.3113 10.2451 16.3343 10.0826 16.3573 9.91906C16.3593 9.90706 16.3643 9.89456 16.3673 9.88206C16.5303 9.39306 16.6903 8.90356 16.8523 8.41356C16.8603 8.39106 16.8663 8.36956 16.8788 8.34806C16.8774 8.35947 16.8756 8.37081 16.8733 8.38206C16.8003 8.73606 16.7243 9.08906 16.6518 9.44206C16.6193 9.60756 16.5848 9.77356 16.5503 9.93906C16.5479 9.95278 16.5435 9.96608 16.5373 9.97856L16.3443 10.4611C16.3408 10.4681 16.3383 10.4756 16.3348 10.4846C16.3648 10.4961 16.3893 10.5076 16.4183 10.5191L16.4298 10.4951L16.6313 10.0216C16.6393 10.0056 16.6453 9.99006 16.6558 9.97706L17.5283 8.64606C17.5338 8.63906 17.5383 8.63206 17.5468 8.62706C17.5433 8.63406 17.5408 8.64106 17.5363 8.64806L16.8188 10.0731C16.8113 10.0866 16.8038 10.1001 16.7948 10.1121C16.6908 10.2506 16.5863 10.3891 16.4838 10.5266C16.4788 10.5344 16.4733 10.542 16.4673 10.5491L16.5383 10.6046C16.5439 10.5986 16.5491 10.5923 16.5538 10.5856C16.6598 10.4506 16.7653 10.3151 16.8728 10.1801C16.8846 10.1649 16.8979 10.1508 16.9123 10.1381C17.3073 9.78506 17.7028 9.43256 18.0983 9.08056C18.1048 9.07506 18.1093 9.06956 18.1198 9.06656L18.1068 9.08256C17.9453 9.26506 17.7838 9.44656 17.6198 9.62806C17.4248 9.84556 17.2323 10.0626 17.0388 10.2801C17.0288 10.2911 17.0168 10.3006 17.0063 10.3096L16.5998 10.6291L16.5798 10.6451C16.5988 10.6691 16.6158 10.6921 16.6358 10.7161L16.6573 10.7001L17.0738 10.3881C17.0844 10.3805 17.0954 10.3735 17.1068 10.3671C17.5868 10.1261 18.0638 9.88606 18.5408 9.64506C18.5488 9.64156 18.5553 9.63856 18.5638 9.63856C18.5418 9.65306 18.5213 9.66706 18.4993 9.68056C18.0678 9.96406 17.6363 10.2476 17.2033 10.5311C17.1913 10.5381 17.1803 10.5451 17.1673 10.5506C17.0078 10.6196 16.8468 10.6876 16.6888 10.7561L16.6633 10.7661C16.6768 10.7941 16.6863 10.8206 16.6983 10.8486L16.7213 10.8411C16.8818 10.7776 17.0413 10.7111 17.2033 10.6496C17.2433 10.6336 17.2873 10.6266 17.3308 10.6176L18.0673 10.4646C18.2963 10.4176 18.5233 10.3696 18.7528 10.3221C18.7738 10.3176 18.7933 10.3131 18.8153 10.3091C18.8208 10.3091 18.8258 10.3081 18.8338 10.3111L18.7638 10.3341C18.2753 10.4956 17.7883 10.6566 17.2998 10.8161C17.2628 10.8291 17.2218 10.8326 17.1833 10.8386C17.0738 10.8551 16.9658 10.8696 16.8593 10.8851C16.8203 10.8906 16.7818 10.8966 16.7428 10.9016L16.7143 10.9066C16.7173 10.9361 16.7218 10.9636 16.7238 10.9956L16.7993 10.9876L17.0693 10.9556C17.1368 10.9471 17.2073 10.9376 17.2778 10.9311C17.3093 10.9286 17.3413 10.9316 17.3738 10.9331C17.4423 10.9361 17.5108 10.9421 17.5823 10.9451L17.9863 10.9691C18.0463 10.9726 18.1063 10.9751 18.1683 10.9791L18.5803 11.0026C18.6778 11.0086 18.7783 11.0131 18.8753 11.0191C18.8994 11.0204 18.9234 11.0226 18.9473 11.0256L18.8743 11.0316L18.5718 11.0481L18.1973 11.0701L17.9148 11.0851C17.7848 11.0931 17.6523 11.1006 17.5213 11.1091C17.4493 11.1121 17.3753 11.1191 17.3028 11.1196C17.2613 11.1206 17.2178 11.1126 17.1773 11.1081C17.0884 11.0976 16.9996 11.087 16.9108 11.0761L16.7403 11.0556H16.7238C16.7218 11.0846 16.7173 11.1131 16.7143 11.1436C16.8905 11.1697 17.0669 11.1952 17.2433 11.2201C17.2953 11.2266 17.3408 11.2471 17.3898 11.2626L18.8118 11.7321C18.821 11.734 18.8297 11.7379 18.8373 11.7436C18.8253 11.7416 18.8138 11.7396 18.8018 11.7386L17.5668 11.4811L17.2408 11.4131C17.2303 11.4101 17.2163 11.4061 17.2048 11.4006C17.0443 11.3371 16.8833 11.2721 16.7218 11.2076L16.7003 11.2001C16.6886 11.2274 16.6764 11.2546 16.6638 11.2816L16.6903 11.2941C16.8498 11.3621 17.0083 11.4296 17.1668 11.4981C17.1793 11.5036 17.1918 11.5101 17.2048 11.5191L18.5358 12.3911C18.5423 12.3961 18.5508 12.4021 18.5563 12.4116C18.5498 12.4076 18.5423 12.4051 18.5368 12.4011L17.8433 12.0531C17.6013 11.9301 17.3573 11.8081 17.1128 11.6851C17.0972 11.6773 17.0826 11.6678 17.0693 11.6566C16.9318 11.5541 16.7928 11.4511 16.6553 11.3476C16.6492 11.3424 16.6426 11.3377 16.6358 11.3336C16.6168 11.3566 16.5998 11.3791 16.5798 11.4031L16.5988 11.4181C16.7328 11.5251 16.8693 11.6321 17.0038 11.7386C17.0191 11.7495 17.033 11.7623 17.0453 11.7766L18.1048 12.9621C18.1091 12.968 18.1125 12.9746 18.1148 12.9816C18.1093 12.9756 18.1018 12.9716 18.0963 12.9671C17.6988 12.6116 17.3008 12.2581 16.9023 11.9031C16.8932 11.895 16.8852 11.886 16.8783 11.8761L16.5543 11.4631C16.5498 11.4566 16.5443 11.4506 16.5388 11.4441C16.5158 11.4631 16.4933 11.4801 16.4703 11.5001C16.4723 11.5061 16.4768 11.5126 16.4808 11.5186L16.7953 11.9376C16.8043 11.9498 16.8123 11.9626 16.8193 11.9761C17.0578 12.4491 17.2958 12.9231 17.5338 13.3966C17.5377 13.403 17.5402 13.4101 17.5413 13.4176H17.5398V13.4136Z" fill="#010088"/>
<path fill-rule="evenodd" clip-rule="evenodd" d="M17.5348 13.4135C17.5398 13.4185 17.5428 13.424 17.5468 13.4285C17.5443 13.4295 17.5443 13.431 17.5413 13.4315C17.5403 13.4245 17.5368 13.42 17.5358 13.4135H17.5348Z" fill="#010088"/>
</svg>
